<?xml version="1.0" encoding="iso-8859-1"?>
<!-- Generator: Adobe Illustrator 19.0.0, SVG Export Plug-In . SVG Version: 6.00 Build 0)  -->
<svg version="1.1" id="Layer_1" xmlns="http://www.w3.org/2000/svg" xmlns:xlink="http://www.w3.org/1999/xlink" x="0px" y="0px"
	 viewBox="0 0 512 512" style="enable-background:new 0 0 512 512;" xml:space="preserve">
<path style="fill:#874D00;" d="M258.972,221.755c-8.874,0-16.07-7.194-16.07-16.07V16.07c0-8.874,7.194-16.07,16.07-16.07
	c8.874,0,16.07,7.194,16.07,16.07v189.615C275.042,214.561,267.848,221.755,258.972,221.755z"/>
<path style="fill:#653902;" d="M258.972,0.002v213.541h-14.01c2.753,4.898,7.991,8.213,14.01,8.213c8.874,0,16.07-7.194,16.07-16.07
	V16.07C275.042,7.195,267.848,0.002,258.972,0.002z"/>
<path style="fill:#FFD422;" d="M431.887,40.062L262.637,0.424c-4.777-1.12-9.803,0.006-13.648,3.054s-6.085,7.685-6.085,12.592
	v84.631c0,4.99,2.319,9.697,6.274,12.739c2.84,2.182,6.29,3.33,9.795,3.33c1.379,0,2.766-0.178,4.129-0.54l169.25-44.993
	c7.126-1.894,12.049-8.396,11.939-15.769C444.181,48.096,439.066,41.744,431.887,40.062z"/>
<path style="fill:#CD2A00;" d="M258.972,176.715c-61.433,0-111.412,49.98-111.412,111.412s49.98,111.412,111.412,111.412
	s111.412-49.98,111.412-111.412S320.406,176.715,258.972,176.715z"/>
<path style="fill:#AA2300;" d="M258.972,176.715c-0.12,0-0.241,0.005-0.362,0.005v222.815c0.12,0,0.241,0.005,0.362,0.005
	c61.433,0,111.412-49.98,111.412-111.412S320.406,176.715,258.972,176.715z"/>
<path style="fill:#FFFFFF;" d="M152.755,254.488H365.19c-3.7-11.656-9.27-22.486-16.355-32.138H169.11
	C162.025,232.003,156.455,242.832,152.755,254.488z"/>
<path style="fill:#1A6FB0;" d="M255.999,512c-18.617,0-36.12-7.25-49.284-20.415c-14.931-14.93-39.223-14.93-54.154,0
	c-6.133,6.132-16.076,6.132-22.207,0c-6.133-6.132-6.133-16.075,0-22.208c27.175-27.174,71.393-27.174,98.568,0
	c14.932,14.931,39.225,14.93,54.154,0c13.164-13.164,30.667-20.415,49.284-20.415c18.618,0,36.121,7.25,49.284,20.415
	c6.133,6.132,6.133,16.075,0,22.208c-6.132,6.131-16.075,6.132-22.207,0c-7.232-7.232-16.848-11.215-27.077-11.215
	c-10.227,0-19.844,3.983-27.077,11.216C292.119,504.75,274.617,512,255.999,512z"/>
<path style="fill:#3D9AE2;" d="M255.999,420.519c-19.53,0-39.06-7.434-53.928-22.302c-16.338-16.338-42.92-16.338-59.257,0
	c-29.736,29.736-78.12,29.736-107.856,0c-6.711-6.711-6.711-17.59,0-24.3c6.711-6.711,17.591-6.711,24.3,0
	c16.338,16.338,42.92,16.336,59.257,0c29.737-29.736,78.122-29.736,107.858,0c7.914,7.913,18.436,12.272,29.628,12.272
	c11.192,0,21.715-4.359,29.628-12.272c14.405-14.405,33.556-22.338,53.928-22.338s39.523,7.933,53.929,22.338
	c16.338,16.338,42.92,16.336,59.257,0c6.711-6.709,17.59-6.709,24.3,0c6.709,6.711,6.709,17.59,0,24.3
	c-29.736,29.736-78.121,29.736-107.858,0c-7.914-7.914-18.436-12.273-29.628-12.273s-21.715,4.359-29.628,12.272
	C295.06,413.085,275.53,420.519,255.999,420.519z"/>
<rect x="242.898" y="0" style="fill:#FEE579;" width="32.132" height="134.325"/>
<polygon style="fill:#EEBF00;" points="297.943,106.968 275.042,113.056 275.042,3.33 297.943,8.693 "/>
<g>
</g>
<g>
</g>
<g>
</g>
<g>
</g>
<g>
</g>
<g>
</g>
<g>
</g>
<g>
</g>
<g>
</g>
<g>
</g>
<g>
</g>
<g>
</g>
<g>
</g>
<g>
</g>
<g>
</g>
</svg>
